PathFileType	4	(X/Y/Z)	OpenSim_Sub01_EMGBaseline_Gyro.trc
DataRate	CameraRate	NumFrames	NumMarkers	Units	OrigDataRate	OrigDataStartFrame	OrigNumFrames
100	100	24	8	m	100	2852	7604
Frame#	Time	torso_imu_offset_imu	pelvis_imu_offset_imu	tibia_r_imu_offset_imu	femur_r_imu_offset_imu	tibia_l_imu_offset_imu	femur_l_imu_offset_imu	toes_r_imu_offset_imu	toes_l_imu_offset_imu
				X1	Y1	Z1	X2	Y2	Z2	X3	Y3	Z3	X4	Y4	Z4	X5	Y5	Z5	X6	Y6	Z6	X7	Y7	Z7	X8		Y8	Z8	

2852	28.51000000	-0.18419738	-0.20349753	-0.10056229	0.01426727	0.20074934	0.26952819	0.12435181	0.63400711	4.39109525	0.42144042	-0.08793001	0.34312292	0.14931536	-0.02731174	0.62338187	0.51829469	-0.29613877	0.63478177	-0.36197475	5.18618663	1.65545360	0.01858967	-0.09442189	0.07707135
2853	28.52000000	-0.13724326	-0.20054979	-0.08965147	0.05349362	0.19514180	0.26145871	0.25171144	0.71827091	4.48390413	0.25976617	-0.10603180	0.20845166	0.11919651	-0.02117576	0.62771530	0.49953823	-0.26023441	0.65893365	-0.34033480	5.17370049	1.55596604	0.02047931	-0.10810540	0.07835575
2854	28.53000000	-0.08342653	-0.20098017	-0.07765713	0.08801168	0.19033523	0.25299136	0.35459504	0.76325275	4.54670783	0.13993781	-0.10453692	0.07622034	0.14595026	-0.02862157	0.65059137	0.44134092	-0.25184804	0.66216159	-0.30513557	5.15235508	1.45579816	0.02177119	-0.11981858	0.08145765
2855	28.54000000	-0.02572196	-0.20044870	-0.06466498	0.11775567	0.18345837	0.24012573	0.39942650	0.77910609	4.59080226	0.05468319	-0.09060456	-0.05530861	0.20635183	-0.04205893	0.67715358	0.35355182	-0.25872628	0.65577656	-0.27399699	5.11450155	1.36325644	0.02379985	-0.12728262	0.08698118
2856	28.55000000	0.03227162	-0.19420141	-0.05072638	0.14257150	0.17127598	0.21872088	0.35963629	0.78213367	4.62980673	-0.01004730	-0.07367572	-0.18766455	0.26898932	-0.05183705	0.68904341	0.24913293	-0.26565546	0.65459746	-0.26822183	5.04704374	1.28596873	0.02792270	-0.12854265	0.09545005
2857	28.56000000	0.08677694	-0.18141916	-0.03470622	0.16651391	0.15671531	0.18853604	0.27117245	0.77309126	4.66318986	-0.06343533	-0.05590416	-0.32171559	0.31250927	-0.05403196	0.68568922	0.13623440	-0.27283969	0.66271222	-0.26678665	4.94959868	1.23094278	0.03340447	-0.12488951	0.10638305
2858	28.57000000	0.13388021	-0.16431164	-0.01455682	0.19687515	0.14744444	0.15233325	0.21809692	0.74077062	4.67952723	-0.11091393	-0.03383389	-0.45782028	0.32330651	-0.04912871	0.68020966	0.01930439	-0.29234692	0.67594821	-0.21610408	4.83156554	1.20470907	0.03789968	-0.12011178	0.11852516
2859	28.58000000	0.17065686	-0.14490027	0.01082977	0.23778458	0.14719078	0.11361551	0.26956850	0.67913726	4.66733616	-0.15604968	-0.00380711	-0.59560193	0.29500621	-0.03836678	0.68340464	-0.09449637	-0.33016931	0.69013626	-0.08679133	4.69660564	1.21381923	0.03995593	-0.11702215	0.13039829
2860	28.59000000	0.19713230	-0.12441555	0.03969938	0.28372577	0.14760999	0.07785801	0.44678489	0.59844447	4.61579354	-0.19714987	0.03800475	-0.73253813	0.24212562	-0.02489040	0.69813752	-0.18966380	-0.37333843	0.70174876	0.07612348	4.53058307	1.26492438	0.04089768	-0.11534243	0.13992063
2861	28.60000000	0.21399556	-0.10389214	0.06976811	0.32750604	0.13856043	0.05068903	0.75901169	0.51242535	4.51475336	-0.22916615	0.09464177	-0.86520880	0.18298045	-0.01220676	0.72540641	-0.25024644	-0.40612515	0.70726746	0.21404709	4.31621874	1.36660361	0.04248501	-0.11441853	0.14527594
2862	28.61000000	0.22370462	-0.08362257	0.09874366	0.36353482	0.11640303	0.03457145	1.16965610	0.44182218	4.36237628	-0.21139000	0.15687291	-0.98269820	0.13492619	-0.00398434	0.76025526	-0.27667957	-0.42394488	0.70153866	0.27126438	4.03843647	1.55600921	0.04531437	-0.11652207	0.15029252
2863	28.62000000	0.23007810	-0.06332860	0.12432786	0.38745626	0.08250603	0.02953101	1.60679851	0.41276156	4.16321535	-0.07570046	0.20602342	-1.06831983	0.11457288	-0.00401308	0.79314713	-0.28200984	-0.43079161	0.67815508	0.19431997	3.68386561	1.89224152	0.04908637	-0.12617561	0.16314052
2864	28.63000000	0.23540565	-0.04343211	0.14510283	0.39684176	0.04052839	0.03494156	1.96461664	0.43647865	3.91920279	0.19520245	0.22662789	-1.10445532	0.13020223	-0.01255367	0.81791711	-0.27538158	-0.43024392	0.63779411	-0.01151528	3.25203464	2.37170795	0.05338297	-0.14629203	0.18771579
2865	28.64000000	0.23732981	-0.02647893	0.16226677	0.39489493	0.00055295	0.04842627	2.03924913	0.47954826	3.62399474	0.46551294	0.21347906	-1.07115830	0.16540580	-0.01937044	0.83877016	-0.25337958	-0.42399023	0.60228058	-0.16664283	2.78067031	2.80285132	0.05750208	-0.17482908	0.21488165
2866	28.65000000	0.23272267	-0.01516609	0.17735684	0.38531947	-0.02687248	0.06721951	1.62937087	0.49979795	3.26809400	0.57956158	0.16352520	-0.95115503	0.20005195	-0.01304876	0.86178227	-0.21170475	-0.41360770	0.59562566	-0.08137387	2.31289880	2.97050684	0.06079911	-0.20908759	0.23366934
2867	28.66000000	0.21978381	-0.00857772	0.18974481	0.36372125	-0.04201455	0.08758142	0.84282373	0.44771958	2.81771579	0.50801594	0.07758987	-0.77360183	0.22660195	0.00642991	0.89233854	-0.16757647	-0.40423784	0.61605272	0.10269742	1.86696410	2.82625975	0.06427534	-0.25024675	0.24175084
2868	28.67000000	0.19773560	-0.00301698	0.19713596	0.31947829	-0.05346293	0.10502276	0.02538900	0.26819335	2.22040148	0.31877976	-0.04052081	-0.60337340	0.24720989	0.03031419	0.93529030	-0.15476730	-0.40376239	0.64193500	-0.01087168	1.44193107	2.45004378	0.07019776	-0.30247155	0.24344858
2869	28.68000000	0.16704320	0.00494622	0.19771344	0.24966321	-0.06744701	0.11590407	-0.54783254	-0.04718811	1.45342328	0.05801532	-0.18774263	-0.47494410	0.26266033	0.05340332	0.99299670	-0.19173262	-0.41538949	0.65307149	-0.59448256	1.00344772	1.90383345	0.07910535	-0.37036321	0.24166990
2870	28.69000000	0.13178629	0.01773667	0.19120780	0.17468855	-0.08254668	0.11916811	-0.82994876	-0.36760086	0.58382361	-0.30015046	-0.36344396	-0.32972595	0.26892746	0.08171729	1.06045224	-0.25014896	-0.42823053	0.63501475	-1.13533586	0.41933235	1.18642859	0.08630567	-0.45959080	0.23460904
2871	28.70000000	0.09680784	0.03735890	0.17773112	0.11815924	-0.09585439	0.11428179	-0.82703659	-0.54603643	-0.30275809	-0.78614823	-0.56589699	-0.09796942	0.26222596	0.12253668	1.13185399	-0.29426475	-0.42919049	0.57615011	-1.03889556	-0.44182772	0.29742324	0.08663467	-0.57580952	0.21966956
2872	28.71000000	0.06837262	0.06231015	0.15882330	0.08688045	-0.10336855	0.10141172	-0.70642518	-0.57849077	-1.09075854	-1.29932344	-0.77024292	0.19963486	0.25567579	0.17096322	1.20983999	-0.30659290	-0.41115720	0.49133260	-0.38315674	-1.42930038	-0.57693638	0.08234387	-0.72151232	0.19546275
2873	28.72000000	0.05383744	0.08838813	0.13712365	0.07472555	-0.10024604	0.08126357	-0.75943394	-0.57101719	-1.64161104	-1.63816934	-0.93382550	0.47278060	0.27540725	0.21272723	1.30354078	-0.28370923	-0.37162645	0.41578189	0.23632099	-2.17528204	-1.10683161	0.08139207	-0.89675767	0.16153084
2874	28.73000000	0.05734566	0.11192291	0.11565212	0.07612579	-0.08256810	0.05519217	-1.09200911	-0.59569751	-1.85867647	-1.67483784	-1.02533795	0.63648251	0.34335877	0.23846316	1.41510721	-0.22642201	-0.31127034	0.36960056	0.41129246	-2.47111917	-1.10831315	0.09024932	-1.10128411	0.11909286
2875	28.74000000	0.07340875	0.13103262	0.09847563	0.08815871	-0.04922692	0.02644000	-1.24979796	-0.61525776	-1.77165852	-1.50806039	-1.04855781	0.62688728	0.46801850	0.25409410	1.52545418	-0.14704097	-0.23984702	0.32641545	0.32966310	-2.59765194	-0.84184512	0.11052570	-1.33406554	0.07427912
